<svg width="26" height="21" viewBox="0 0 26 21" fill="none" xmlns="http://www.w3.org/2000/svg">
<path d="M22.7207 5.22654C22.7366 5.44861 22.7366 5.67073 22.7366 5.8928C22.7366 12.6662 17.5812 20.4708 8.15854 20.4708C5.25561 20.4708 2.55894 19.6301 0.290527 18.1707C0.702978 18.2183 1.09951 18.2342 1.52783 18.2342C3.9231 18.2342 6.12808 17.4252 7.88887 16.0451C5.63633 15.9975 3.74863 14.5222 3.09824 12.4918C3.41553 12.5393 3.73276 12.5711 4.06592 12.5711C4.52593 12.5711 4.98599 12.5076 5.41426 12.3966C3.06655 11.9207 1.30571 9.85853 1.30571 7.36805V7.30462C1.98779 7.68533 2.78101 7.92327 3.62168 7.95496C2.2416 7.03489 1.33745 5.46448 1.33745 3.68782C1.33745 2.73607 1.59121 1.8636 2.0354 1.10218C4.55762 4.21131 8.34888 6.24173 12.6001 6.46385C12.5208 6.08314 12.4732 5.6866 12.4732 5.29002C12.4732 2.46639 14.7575 0.16629 17.5969 0.16629C19.0722 0.16629 20.4046 0.784943 21.3406 1.78431C22.4985 1.56224 23.6089 1.13392 24.5925 0.547003C24.2117 1.73675 23.4027 2.73611 22.3399 3.37059C23.371 3.2596 24.3704 2.974 25.2904 2.57747C24.5926 3.59266 23.7201 4.49681 22.7207 5.22654V5.22654Z" fill="black"/>
</svg>
