<svg width="25" height="17" viewBox="0 0 25 17" fill="none" xmlns="http://www.w3.org/2000/svg">
<path d="M23.8566 2.77443C23.584 1.74795 22.7808 0.93953 21.761 0.665181C19.9124 0.166656 12.5001 0.166656 12.5001 0.166656C12.5001 0.166656 5.08773 0.166656 3.23917 0.665181C2.21933 0.939573 1.41612 1.74795 1.14351 2.77443C0.648193 4.63497 0.648193 8.51683 0.648193 8.51683C0.648193 8.51683 0.648193 12.3987 1.14351 14.2592C1.41612 15.2857 2.21933 16.0604 3.23917 16.3348C5.08773 16.8333 12.5001 16.8333 12.5001 16.8333C12.5001 16.8333 19.9124 16.8333 21.761 16.3348C22.7808 16.0604 23.584 15.2857 23.8566 14.2592C24.3519 12.3987 24.3519 8.51683 24.3519 8.51683C24.3519 8.51683 24.3519 4.63497 23.8566 2.77443V2.77443ZM10.0758 12.0413V4.99239L16.2711 8.51692L10.0758 12.0413V12.0413Z" fill="black"/>
</svg>
